Coordinates
version=1
nRows=4
nColumns=63
inDegrees=yes

Units are S.I. units (second, meters, Newtons, ...)
If the header above contains a line with 'inDegrees', this indicates whether rotational values are in degrees (yes) or radians (no).

endheader
time	pelvis_tilt	pelvis_list	pelvis_rotation	pelvis_tx	pelvis_ty	pelvis_tz	hip_flexion_r	hip_adduction_r	hip_rotation_r	knee_angle_r	knee_angle_r_beta	ankle_angle_r	subtalar_angle_r	mtp_angle_r	hip_flexion_l	hip_adduction_l	hip_rotation_l	knee_angle_l	knee_angle_l_beta	ankle_angle_l	subtalar_angle_l	mtp_angle_l	L5_S1_Flex_Ext	L5_S1_Lat_Bending	L5_S1_axial_rotation	L4_L5_Flex_Ext	L4_L5_Lat_Bending	L4_L5_axial_rotation	L3_L4_Flex_Ext	L3_L4_Lat_Bending	L3_L4_axial_rotation	L2_L3_Flex_Ext	L2_L3_Lat_Bending	L2_L3_axial_rotation	L1_L2_Flex_Ext	L1_L2_Lat_Bending	L1_L2_axial_rotation	L1_T12_Flex_Ext	L1_T12_Lat_Bending	L1_T12_axial_rotation	Abs_r3	Abs_r2	Abs_r1	Abs_t1	Abs_t2	neck_flexion	neck_bending	neck_rotation	arm_flex_r	arm_add_r	arm_rot_r	elbow_flex_r	pro_sup_r	wrist_flex_r	wrist_dev_r	arm_flex_l	arm_add_l	arm_rot_l	elbow_flex_l	pro_sup_l	wrist_flex_l	wrist_dev_l
      1.27118644	     -3.81423613	      0.08445730	     73.90153382	      0.25551869	      0.65658827	      0.62851872	      0.28208621	      0.48800414	     14.72628729	      0.34807075	      0.00607498	     17.64452125	    -11.52228881	      0.00000000	      9.82623460	     -2.48496647	    -15.88635457	     24.49208252	      0.42746748	     29.33649950	     -9.41594188	      0.00000000	     -0.35661694	      0.30945885	      2.35939001	     -0.66227332	      0.41158027	      2.50685188	     -0.58588597	      0.75241825	      2.50685188	     -0.40757750	      0.75241825	      2.06446625	     -0.33115449	      0.63104849	      1.91700438	     -0.20377092	      0.47935176	      1.76954250	     -2.54727916	      3.50066041	     13.12221939	      0.00000000	      0.00000000	      9.82186756	      1.83492338	      8.14790865	    -18.38159057	    -17.67116435	      3.95525650	     47.58271786	     84.34515183	     -5.71194481	      3.11256961	     -0.92786238	    -21.85280787	     12.26184174	    113.03512276	     86.17248226	     -7.35695355	     11.51522425
      1.28813559	     -4.02782212	      0.33755657	     74.32511400	      0.25560977	      0.65745123	      0.62947788	      0.15864265	      0.19479403	     14.81570928	      0.34257879	      0.00597913	     17.98240944	    -11.11369360	      0.00000000	      9.65065412	     -2.21312086	    -15.91330517	     24.30062357	      0.42412589	     29.08098539	     -9.27006013	      0.00000000	     -0.37379448	      0.27652634	      2.57557297	     -0.69417373	      0.36778004	      2.73654628	     -0.61410695	      0.67234615	      2.73654628	     -0.42720971	      0.67234615	      2.25362635	     -0.34710555	      0.56389252	      2.09265304	     -0.21358616	      0.42833930	      1.93167973	     -2.66997658	      3.12812129	     14.32456421	      0.00000000	      0.00000000	      9.32482340	      2.27052524	      7.59232967	    -17.52473908	    -17.24256634	      4.23691728	     47.11901641	     83.86325868	     -5.68831564	      1.86202846	      0.70675174	    -21.98964497	     15.26312884	    108.87521171	     87.73845442	     -8.80272217	     12.37317092
      1.30508475	     -4.22274807	      0.51710348	     74.92535427	      0.25568101	      0.65814836	      0.63061102	      0.06296245	     -0.04592384	     14.59566832	      0.35229591	      0.00614872	     18.11898362	    -10.78388404	      0.00000000	      9.45497935	     -1.90158617	    -15.58275928	     23.87792527	      0.41674841	     28.85207368	     -9.14087834	      0.00000000	     -0.38595152	      0.23364408	      2.76295497	     -0.71675056	      0.31074662	      2.93563966	     -0.63407975	      0.56808221	      2.93563966	     -0.44110399	      0.56808221	      2.41758560	     -0.35839458	      0.47644700	      2.24490091	     -0.22053270	      0.36191467	      2.07221623	     -2.75681310	      2.64302851	     15.36672666	      0.00000000	      0.00000000	      9.27737827	      2.62834955	      6.32072653	    -16.17728091	    -16.94632559	      5.45942482	     46.16425920	     83.17364344	     -5.62963094	     -0.03821791	      2.60895600	    -22.02407285	     18.60972714	    103.70329607	     88.52203923	     -9.94640931	     11.74873746
      1.32203390	     -4.39785109	      0.50412839	     75.54704141	      0.25576880	      0.65849477	      0.63147682	      0.08947779	     -0.20654352	     14.02318146	      0.38069089	      0.00664431	     17.90456208	    -10.57458210	      0.00000000	      9.35728121	     -1.57896194	    -14.92511260	     23.29026204	      0.40649176	     28.58445230	     -9.23040864	      0.00000000	     -0.36685537	      0.19205786	      2.92467906	     -0.68128711	      0.25543695	      3.10747150	     -0.60270669	      0.46696948	      3.10747150	     -0.41927900	      0.46696948	      2.55909418	     -0.34066190	      0.39164438	      2.37630173	     -0.20962116	      0.29749762	      2.19350929	     -2.62041123	      2.17259691	     16.26618752	      0.00000000	      0.00000000	      9.53552132	      2.30946404	      4.42091947	    -14.46685040	    -16.84477439	      7.76958056	     44.88741664	     82.35678761	     -6.18187828	     -2.32669772	      4.50036123	    -22.00748179	     22.46368306	     97.68906847	     88.91949861	    -11.94983099	      9.43160573
